PathFileType	4	(X/Y/Z)	F:\MotionCapture\20160217\3\Generated_files\EMG_Fprce_test04-Dynamic.trc
DataRate	CameraRate	NumFrames	NumMarkers	Units	OrigDataRate	OrigDataStartFrame	OrigNumFrames
120.00	120.00	       4	39	mm	120.00	71	       566
Frame#	Time	Top.Head			Front.Head			Rear.Head			R.Shoulder			R.Offset			R.Elbow			R.Wrist			L.Shoulder			L.Elbow			L.Wrist			R.ASIS			L.ASIS			V.Sacral			R.Thigh			R.Knee			R.Shank			R.Ankle			R.Heel			R.Toe			L.Thigh			L.Knee			L.Shank			L.Ankle			L.Heel			L.Toe			R1			R2			R3			R4			R5			R6			R7			L1			L2			L3			L4			L5			L6			L7			V_Mid_ASIS			V_Pelvis_Origin			V_R.Hip_JC			V_L.Hip_JC			V_R.Knee_JC			V_L.Knee_JC			V_R.Ankle_JC			V_L.Ankle_JC			V_Mid_Hip			V_Mid_Shoulder			V_R.Hand			V_L.Hand			V_R.Toe_Offset_Static			V_L.Toe_Offset_Static			V_R.Toe_Offset			V_L.Toe_Offset			
		X1	Y1	Z1	X2	Y2	Z2	X3	Y3	Z3	X4	Y4	Z4	X5	Y5	Z5	X6	Y6	Z6	X7	Y7	Z7	X8	Y8	Z8	X9	Y9	Z9	X10	Y10	Z10	X11	Y11	Z11	X12	Y12	Z12	X13	Y13	Z13	X14	Y14	Z14	X15	Y15	Z15	X16	Y16	Z16	X17	Y17	Z17	X18	Y18	Z18	X19	Y19	Z19	X20	Y20	Z20	X21	Y21	Z21	X22	Y22	Z22	X23	Y23	Z23	X24	Y24	Z24	X25	Y25	Z25	X26	Y26	Z26	X27	Y27	Z27	X28	Y28	Z28	X29	Y29	Z29	X30	Y30	Z30	X31	Y31	Z31	X32	Y32	Z32	X33	Y33	Z33	X34	Y34	Z34	X35	Y35	Z35	X36	Y36	Z36	X37	Y37	Z37	X38	Y38	Z38	X39	Y39	Z39	

71	0.583	2060.21777	115.76817	1688.87463	1938.89124	120.00563	1618.52209	2159.66089	102.80833	1608.31958	2113.74976	299.69772	1373.83850	2214.59253	10.82831	1244.35376	2247.12207	381.63263	1082.48840	2254.17358	433.75842	824.06909	2038.57153	-102.89682	1387.05701	1989.16602	-207.75737	1067.10522	1801.59778	-152.35832	899.41107	2045.11633	226.94344	914.33459	2040.36536	-62.01477	888.63654	2266.32910	83.40944	916.37036	1891.90063	196.75607	607.42761	1903.83765	248.70067	488.12115	1848.78955	186.04340	258.27591	1856.02356	260.06213	86.67107	1913.52197	200.99718	38.66315	1716.84656	242.69113	96.52512	2096.87793	-1.27469	558.93530	2246.05908	-49.36320	435.00888	2292.18970	30.40646	303.37848	2460.59814	-31.39934	85.03621	2529.59766	23.70818	82.69534	2328.76416	-24.74115	44.55480	1671.80737	227.56238	110.66343	1709.93665	207.83463	101.96445	1804.20605	173.21910	85.14452	1868.71667	171.43500	49.78959	1885.24841	244.89215	47.70979	1812.34717	275.38278	65.55260	1748.60266	281.19241	80.32128	2284.34253	-1.29245	38.98230	2316.97681	15.27956	46.82384	2409.71387	57.34952	57.49372	2491.26050	55.20358	73.04220	2502.18896	-16.21507	76.03688	2431.35181	-45.50380	47.46692	2369.04053	-57.74730	44.02238	
72	0.592	2052.00146	117.69407	1688.42737	1930.42041	121.59325	1618.34497	2151.39551	104.46529	1607.66357	2105.46411	301.33728	1373.17249	2206.09082	12.79126	1243.68628	2239.69727	382.93808	1081.68604	2248.05835	434.86923	824.16895	2029.45862	-100.79232	1386.53821	1979.65991	-205.81836	1066.66760	1790.43201	-149.72740	900.97937	2034.93188	228.49297	914.04163	2032.52136	-61.84934	888.04462	2257.17188	85.91236	915.82990	1884.04077	197.35208	606.78949	1895.56494	249.38292	486.80011	1843.77380	186.27634	255.74141	1850.55688	262.13098	84.32057	1910.47400	202.06264	38.35589	1712.31128	243.46101	92.41210	2088.87964	-0.77778	558.30341	2239.51392	-48.87915	434.91751	2287.49121	30.61495	303.91782	2459.63818	-31.54882	88.85374	2528.11694	23.19952	87.54698	2328.50977	-24.84977	44.58885	1666.98877	228.00719	106.41863	1705.39087	208.50491	97.93353	1799.55139	173.62857	81.59162	1865.44373	172.05374	47.49944	1882.28076	246.44174	46.53604	1810.15466	276.03653	62.34626	1744.46448	282.17172	76.81158	2284.15356	-1.48446	38.87245	2316.84326	15.00428	46.67256	2408.64819	57.39946	60.32992	2490.22485	55.45156	77.85728	2499.73804	-16.36986	77.70473	2430.90479	-45.77797	50.17397	2368.27734	-57.64982	44.19368																																																	1361.46814	61.09943	1441.86316	
73	0.600	2043.50220	119.46179	1687.87341	1922.43079	123.60743	1617.83704	2142.85010	106.49262	1607.14246	2097.11279	303.28851	1372.84216	2197.16113	14.30905	1243.20569	2231.19971	383.99979	1081.31836	2241.34839	436.26547	823.89008	2020.83350	-98.72637	1386.52087	1970.55212	-203.93343	1066.61292	1779.98877	-146.98521	902.55853	2026.24536	229.63354	914.15540	2023.45422	-59.04826	887.57556	2247.80029	88.37103	915.16791	1875.41455	198.25726	605.62097	1888.36194	249.88560	484.30533	1839.66223	186.64255	253.29401	1847.34937	262.32468	80.97232	1909.97205	201.91394	38.10459	1709.46594	244.08296	85.69686	2080.59863	-0.42300	557.68524	2232.77466	-48.57637	435.00909	2281.93091	30.77620	304.16437	2457.85742	-32.08335	92.44552	2526.15601	23.11138	92.66109	2328.35083	-24.93914	44.59747	1664.42578	228.25885	98.47088	1702.22656	209.52214	91.46519	1797.25598	174.50279	77.88033	1864.68738	171.75351	46.66566	1880.95129	245.47116	45.10957	1804.08679	273.78146	54.57386	1742.12744	281.59949	69.46993	2283.89673	-1.68139	38.61442	2316.64502	14.77194	46.48778	2407.08398	57.01237	61.73675	2488.51514	54.97696	81.78370	2499.21045	-16.57866	84.57440	2429.82983	-45.86574	52.51186	2367.44897	-57.90852	43.47306																																																	1353.26111	62.55706	1441.92822	2277.61914	-92.73998	416.19150	2435.88135	82.15614	-142.68269	
74	0.608	2035.52136	121.75028	1687.57751	1913.47559	125.05516	1617.92517	2134.34302	108.56679	1607.00415	2088.36060	305.47244	1372.83435	2188.17236	16.34413	1242.85181	2223.98047	385.77924	1081.47778	2233.73975	437.16995	823.81378	2011.83899	-96.60415	1386.16821	1961.41467	-201.81235	1066.66870	1769.42310	-144.54445	903.89386	2016.07678	231.57277	913.85394	2012.89038	-57.00359	887.22571	2238.41577	90.90417	915.00806	1866.33765	199.00226	605.25299	1882.10925	251.68259	483.47012	1835.34558	186.64883	250.62935	1847.91931	263.38327	80.43311	1910.79089	201.52068	38.45799	1709.06775	245.04857	78.52020	2071.66479	0.73248	557.38843	2224.64844	-48.28743	435.24356	2275.90527	31.02904	305.03641	2455.85107	-31.96814	95.81665	2524.03711	22.95140	98.37705	2328.22485	-25.01208	44.54239	1662.94080	229.34647	89.26812	1700.78992	210.14883	83.46381	1797.13525	174.37117	74.94019	1864.71582	171.47733	45.54135	1880.96460	244.96371	44.45432	1802.79919	273.98264	49.51516	1742.85913	282.01834	63.40707	2283.69922	-1.92972	38.49942	2316.27148	14.63127	46.28463	2406.08032	57.37440	65.06137	2486.46704	54.80073	86.45296	2497.35205	-16.82137	89.39190	2428.84595	-44.44541	53.33332	2366.50488	-57.78596	43.85453	
